<svg width="30" height="30" viewBox="0 0 30 30" fill="none" xmlns="http://www.w3.org/2000/svg">
<path d="M-6.55671e-07 15C-5.25994e-07 12.0333 0.879667 9.13318 2.528 6.66645C4.17617 4.19971 6.51883 2.27713 9.25967 1.14181C12.0007 0.00649688 15.0167 -0.290553 17.9263 0.28823C20.8361 0.866997 23.5088 2.29561 25.6066 4.3934C27.7044 6.4912 29.133 9.16393 29.7118 12.0737C30.2906 14.9833 29.9935 17.9993 28.8582 20.7403C27.7229 23.4812 25.8003 25.8238 23.3336 27.472C20.8668 29.1203 17.9667 30 15 30C11.0217 30 7.2065 28.4197 4.39333 25.6067C1.58033 22.7935 -8.29569e-07 18.9783 -6.55671e-07 15ZM27.5 15C27.5 12.5277 26.7669 10.111 25.3934 8.05538C24.0199 5.99976 22.0676 4.3976 19.7835 3.45151C17.4995 2.50541 14.9862 2.25788 12.5613 2.74018C10.1367 3.2225 7.90933 4.41301 6.16116 6.16116C4.413 7.90933 3.2225 10.1366 2.74017 12.5613C2.25783 14.9862 2.50533 17.4995 3.4515 19.7835C4.39766 22.0677 5.99983 24.0198 8.05533 25.3933C10.111 26.7668 12.5277 27.5 15 27.5C18.3152 27.5 21.4946 26.183 23.8388 23.8388C26.183 21.4947 27.5 18.3152 27.5 15Z" fill="#E69952"/>
<path d="M7.10515 14.9999C7.10432 14.8356 7.13612 14.6725 7.19873 14.5207C7.26134 14.3688 7.35344 14.2312 7.46955 14.1156L14.095 7.44111C14.3304 7.22005 14.642 7.09971 14.9638 7.10542C15.2856 7.11114 15.5927 7.24248 15.8203 7.47178C16.0479 7.70107 16.1782 8.01041 16.1839 8.33463C16.1897 8.65884 16.0701 8.97261 15.8508 9.20985L10.1032 14.9999L15.8508 20.79C16.0701 21.0273 16.1897 21.3412 16.1839 21.6654C16.1782 21.9896 16.0479 22.2988 15.8203 22.5282C15.5927 22.7575 15.2856 22.8888 14.9638 22.8945C14.642 22.9002 14.3304 22.7799 14.095 22.5588L7.46955 15.8843C7.35344 15.7688 7.26134 15.631 7.19873 15.4792C7.13612 15.3273 7.10432 15.1644 7.10515 14.9999Z" fill="#E69952"/>
<path d="M7.10506 14.9999C7.10938 14.6871 7.24201 14.3882 7.47486 14.167C7.70772 13.9458 8.02234 13.8198 8.35159 13.8157L21.648 13.8157C21.9786 13.8157 22.2957 13.9404 22.5294 14.1626C22.7632 14.3846 22.8945 14.6858 22.8945 14.9999C22.8945 15.3139 22.7632 15.6152 22.5294 15.8372C22.2957 16.0594 21.9786 16.1841 21.648 16.1841L8.35159 16.1841C8.02234 16.18 7.70772 16.054 7.47486 15.8328C7.24201 15.6116 7.10938 15.3127 7.10506 14.9999Z" fill="#E69952"/>
</svg>
