<svg width="30" height="30" viewBox="0 0 30 30" fill="none" xmlns="http://www.w3.org/2000/svg">
<path d="M30 15C30 17.9667 29.1203 20.8668 27.472 23.3336C25.8238 25.8003 23.4812 27.7229 20.7403 28.8582C17.9993 29.9935 14.9833 30.2906 12.0737 29.7118C9.16393 29.133 6.4912 27.7044 4.3934 25.6066C2.29561 23.5088 0.866997 20.8361 0.28823 17.9263C-0.290553 15.0167 0.00649688 12.0007 1.14181 9.25967C2.27713 6.51883 4.19971 4.17617 6.66645 2.528C9.13318 0.879667 12.0333 -5.25994e-07 15 -6.55671e-07C18.9783 -8.29569e-07 22.7935 1.58033 25.6067 4.39333C28.4197 7.2065 30 11.0217 30 15ZM2.5 15C2.5 17.4723 3.23311 19.889 4.60663 21.9446C5.98015 24.0002 7.93238 25.6024 10.2165 26.5485C12.5005 27.4946 15.0138 27.7421 17.4387 27.2598C19.8633 26.7775 22.0907 25.587 23.8388 23.8388C25.587 22.0907 26.7775 19.8634 27.2598 17.4387C27.7422 15.0138 27.4947 12.5005 26.5485 10.2165C25.6023 7.93233 24.0002 5.98017 21.9447 4.60667C19.889 3.23317 17.4723 2.5 15 2.5C11.6848 2.5 8.50538 3.817 6.16116 6.16116C3.81696 8.50533 2.5 11.6848 2.5 15Z" fill="#E69952"/>
<path d="M22.8948 15.0001C22.8957 15.1644 22.8639 15.3275 22.8013 15.4793C22.7387 15.6312 22.6466 15.7688 22.5304 15.8844L15.905 22.5589C15.6696 22.7799 15.358 22.9003 15.0362 22.8946C14.7144 22.8889 14.4073 22.7575 14.1797 22.5282C13.9521 22.2989 13.8218 21.9896 13.8161 21.6654C13.8103 21.3412 13.9299 21.0274 14.1492 20.7901L19.8968 15.0001L14.1492 9.20996C13.9299 8.97268 13.8103 8.65881 13.8161 8.3346C13.8218 8.01039 13.9521 7.70119 14.1797 7.47176C14.4073 7.24249 14.7144 7.11117 15.0362 7.10549C15.358 7.09982 15.6696 7.22013 15.905 7.44122L22.5304 14.1157C22.6466 14.2312 22.7387 14.369 22.8013 14.5208C22.8639 14.6727 22.8957 14.8356 22.8948 15.0001Z" fill="#E69952"/>
<path d="M22.8949 15.0001C22.8906 15.3129 22.758 15.6118 22.5251 15.833C22.2923 16.0542 21.9777 16.1802 21.6484 16.1843L8.35201 16.1843C8.02141 16.1843 7.70434 16.0596 7.47057 15.8374C7.2368 15.6154 7.10547 15.3142 7.10547 15.0001C7.10547 14.6861 7.2368 14.3848 7.47057 14.1628C7.70434 13.9406 8.02141 13.8159 8.35201 13.8159L21.6484 13.8159C21.9777 13.82 22.2923 13.946 22.5251 14.1672C22.758 14.3884 22.8906 14.6873 22.8949 15.0001Z" fill="#E69952"/>
</svg>
