<svg width="27" height="27" viewBox="0 0 27 27" fill="none" xmlns="http://www.w3.org/2000/svg">
<g clip-path="url(#clip0_102_284)">
<path d="M25.412 26.8965C26.2317 26.8965 26.8964 26.2318 26.8964 25.4121V1.48443C26.8964 0.664415 26.2316 0 25.412 0H1.48443C0.664415 0 0 0.664515 0 1.48443V25.412C0 26.2318 0.664415 26.8965 1.48443 26.8965L25.412 26.8965Z" fill="#E69952"/>
<path d="M18.5579 26.8965V16.4808H22.054L22.5774 12.4215H18.5578V9.82985C18.5578 8.65461 18.8841 7.85374 20.5695 7.85374L22.7189 7.85273V4.22219C22.3472 4.17281 21.0711 4.06226 19.5868 4.06226C16.4877 4.06226 14.3659 5.95392 14.3659 9.42796V12.4215H10.8608V16.4808H14.3659V26.8964L18.5579 26.8965Z" fill="white"/>
</g>
<defs>
<clipPath id="clip0_102_284">
<rect width="26.8966" height="26.8966" fill="white"/>
</clipPath>
</defs>
</svg>
