<svg width="21" height="20" viewBox="0 0 21 20" fill="none" xmlns="http://www.w3.org/2000/svg">
<path fill-rule="evenodd" clip-rule="evenodd" d="M8.51009 18.3333C8.51009 19.2538 9.25626 20 10.1768 20C11.0973 20 11.8434 19.2538 11.8434 18.3333V11.6667H18.5101C19.4306 11.6667 20.1768 10.9205 20.1768 10C20.1768 9.0795 19.4306 8.33333 18.5101 8.33333H11.8434V1.66667C11.8434 0.746183 11.0973 0 10.1768 0C9.25626 0 8.51009 0.746183 8.51009 1.66667V8.33333H1.84342C0.922958 8.33333 0.176758 9.0795 0.176758 10C0.176758 10.9205 0.922958 11.6667 1.84342 11.6667H8.51009V18.3333Z" fill="white"/>
</svg>
