<svg width="16" height="16" viewBox="0 0 16 16" fill="none" xmlns="http://www.w3.org/2000/svg">
<path fill-rule="evenodd" clip-rule="evenodd" d="M6.66667 14.6667C6.66667 15.4031 7.2636 16 8 16C8.7364 16 9.33333 15.4031 9.33333 14.6667V9.33333H14.6667C15.4031 9.33333 16 8.7364 16 8C16 7.2636 15.4031 6.66667 14.6667 6.66667H9.33333V1.33333C9.33333 0.596947 8.7364 0 8 0C7.2636 0 6.66667 0.596947 6.66667 1.33333V6.66667H1.33333C0.59696 6.66667 0 7.2636 0 8C0 8.7364 0.59696 9.33333 1.33333 9.33333H6.66667V14.6667Z" fill="white"/>
</svg>
