<svg width="16" height="16" viewBox="0 0 16 16" fill="none" xmlns="http://www.w3.org/2000/svg">
<path opacity="0.1" d="M12 6.37035C12 9.47952 9.47952 12 6.37035 12C3.2612 12 0.740723 9.47952 0.740723 6.37035C0.740723 3.2612 3.2612 0.740723 6.37035 0.740723C9.47952 0.740723 12 3.2612 12 6.37035Z" fill="#C7C7C7"/>
<path fill-rule="evenodd" clip-rule="evenodd" d="M9.86311 9.86287C10.1741 9.5519 10.6783 9.5519 10.9892 9.86287L15.767 14.6406C16.078 14.9516 16.078 15.4558 15.767 15.7668C15.4561 16.0778 14.9519 16.0778 14.6409 15.7668L9.86311 10.989C9.55214 10.678 9.55214 10.1738 9.86311 9.86287Z" fill="#C7C7C7"/>
<path fill-rule="evenodd" clip-rule="evenodd" d="M6.37037 1.59259C3.73168 1.59259 1.59259 3.73168 1.59259 6.37037C1.59259 9.00907 3.73168 11.1481 6.37037 11.1481C9.00907 11.1481 11.1481 9.00907 11.1481 6.37037C11.1481 3.73168 9.00907 1.59259 6.37037 1.59259ZM0 6.37037C0 2.85211 2.85211 0 6.37037 0C9.88863 0 12.7407 2.85212 12.7407 6.37037C12.7407 9.88863 9.88863 12.7407 6.37037 12.7407C2.85212 12.7407 0 9.88863 0 6.37037Z" fill="#C7C7C7"/>
</svg>
