<svg width="27" height="27" viewBox="0 0 27 27" fill="none" xmlns="http://www.w3.org/2000/svg">
<g clip-path="url(#clip0_102_276)">
<path d="M9.63692 0.665771H17.4795C24.6431 0.665771 26.3341 2.37011 26.3341 9.53364V17.3763C26.3341 24.5398 24.6297 26.2308 17.4662 26.2308H9.6236C2.46006 26.2308 0.769043 24.5265 0.769043 17.3629V9.52033C0.769043 2.37011 2.47338 0.665771 9.63692 0.665771Z" fill="#5181B8"/>
<mask id="mask0_102_276" style="mask-type:luminance" maskUnits="userSpaceOnUse" x="0" y="0" width="27" height="27">
<path d="M9.63692 0.665771H17.4795C24.6431 0.665771 26.3341 2.37011 26.3341 9.53364V17.3763C26.3341 24.5398 24.6297 26.2308 17.4662 26.2308H9.6236C2.46006 26.2308 0.769043 24.5265 0.769043 17.3629V9.52033C0.769043 2.37011 2.47338 0.665771 9.63692 0.665771Z" fill="white"/>
</mask>
<g mask="url(#mask0_102_276)">
<path d="M0.103516 0H27.0001V26.8966H0.103516V0Z" fill="#E69952"/>
</g>
<path fill-rule="evenodd" clip-rule="evenodd" d="M21.7005 9.46716C21.8204 9.0677 21.7005 8.78809 21.1413 8.78809H19.2772C18.7978 8.78809 18.5848 9.04107 18.465 9.32069C18.465 9.32069 17.5196 11.6375 16.1748 13.1288C15.7354 13.5682 15.549 13.7014 15.3093 13.7014C15.1894 13.7014 15.0164 13.5682 15.0164 13.1688V9.46716C15.0164 8.98781 14.8832 8.78809 14.4837 8.78809H11.5544C11.2615 8.78809 11.0751 9.01444 11.0751 9.21417C11.0751 9.66688 11.7408 9.77341 11.8207 11.025V13.7679C11.8207 14.3671 11.7142 14.4736 11.4745 14.4736C10.8487 14.4736 9.30416 12.1568 8.39874 9.49379C8.21232 9.00113 8.03923 8.78809 7.55988 8.78809H5.69577C5.16316 8.78809 5.05664 9.04107 5.05664 9.32069C5.05664 9.81335 5.68245 12.2633 7.99928 15.4989C9.54384 17.7092 11.7142 18.9076 13.6848 18.9076C14.8699 18.9076 15.0164 18.6413 15.0164 18.1886V16.5109C15.0164 15.9783 15.1229 15.8717 15.509 15.8717C15.7886 15.8717 16.2547 16.0049 17.3598 17.0701C18.6248 18.335 18.8378 18.9076 19.5435 18.9076H21.4076C21.9402 18.9076 22.2065 18.6413 22.0467 18.122C21.8736 17.6027 21.2745 16.8437 20.4756 15.9383C20.0362 15.419 19.3837 14.8731 19.1973 14.5935C18.9177 14.234 18.9976 14.0742 19.1973 13.7679C19.1973 13.7546 21.4742 10.559 21.7005 9.46716Z" fill="white"/>
</g>
<defs>
<clipPath id="clip0_102_276">
<rect width="26.8966" height="26.8966" fill="white" transform="translate(0.103516)"/>
</clipPath>
</defs>
</svg>
